<?xml version="1.0" encoding="utf-8"?>
<!-- Generator: Adobe Illustrator 26.0.1, SVG Export Plug-In . SVG Version: 6.00 Build 0)  -->
<svg version="1.1" id="Capa_1" xmlns="http://www.w3.org/2000/svg" xmlns:xlink="http://www.w3.org/1999/xlink" x="0px" y="0px" viewBox="0 0 34.2 32.9" style="enable-background:new 0 0 34.2 32.9;" xml:space="preserve">
	<path d="M29,26H7c-0.3,0-0.6-0.2-0.8-0.4S6,25,6.1,24.7L8,19.9L6.1,2H0V0h7c0.5,0,0.9,0.4,1,0.9l2,19c0,0.2,0,0.3-0.1,0.5L8.5,24H30
	L29,26z" />
	<path d="M9.2,21l-0.4-2L32,14.2V6H8V4h25c0.6,0,1,0.4,1,1v10c0,0.5-0.3,0.9-0.8,1C33.2,16,9.2,21,9.2,21z" />
	<path d="M30,32c-2.2,0-4-1.8-4-4s1.8-4,4-4s4,1.8,4,4S32.2,32,30,32z M30,26c-1.1,0-2,0.9-2,2s0.9,2,2,2s2-0.9,2-2S31.1,26,30,26z" />
	<path d="M6,32c-2.2,0-4-1.8-4-4s1.8-4,4-4s4,1.8,4,4S8.2,32,6,32z M6,26c-1.1,0-2,0.9-2,2s0.9,2,2,2s2-0.9,2-2S7.1,26,6,26z" />
</svg>