<?xml version="1.0" encoding="utf-8"?>
<!-- Generator: Adobe Illustrator 26.0.1, SVG Export Plug-In . SVG Version: 6.00 Build 0)  -->
<svg version="1.1" id="Layer_1" xmlns="http://www.w3.org/2000/svg" xmlns:xlink="http://www.w3.org/1999/xlink" x="0px" y="0px" viewBox="0 0 512.2 512.2" style="enable-background:new 0 0 512.2 512.2;" xml:space="preserve">
	<path d="M490.9,177.2c-0.2-1.7-0.3-2.9-0.4-3.8C483.9,99,429.3,39.9,358.3,39.9c-41.1,0-78.7,19.5-103.2,51
	c-24-31.8-60.2-51-101-51c-70.7,0-125.3,58.6-132.2,133.9c-0.2,0.9-0.3,1.9-0.4,3.2c-1.2,12.1-0.2,28.3,4.4,47.9
	c9.8,41.8,32.9,79.8,65.4,109.3l151.3,133.1c7.3,6.5,18.4,6.5,25.8,0.1l152.4-132.9c35.9-37.4,57.3-71.1,65.8-109.8
	C490.9,205.2,491.8,189.2,490.9,177.2z" />
</svg>